<svg xmlns="http://www.w3.org/2000/svg" xmlns:xlink="http://www.w3.org/1999/xlink" width="128" zoomAndPan="magnify" viewBox="0 0 96 34.499999" height="46" preserveAspectRatio="xMidYMid meet" version="1.0"><defs><g/><clipPath id="3ee4840235"><path d="M 28.996094 5.742188 L 46.261719 5.742188 L 46.261719 24.496094 L 28.996094 24.496094 Z M 28.996094 5.742188 " clip-rule="nonzero"/></clipPath><clipPath id="9978367b91"><path d="M 37 12 L 46.261719 12 L 46.261719 18 L 37 18 Z M 37 12 " clip-rule="nonzero"/></clipPath><clipPath id="b74892da85"><path d="M 43 12 L 46.261719 12 L 46.261719 23 L 43 23 Z M 43 12 " clip-rule="nonzero"/></clipPath></defs><g clip-path="url(#3ee4840235)"><path fill="#ffffff" d="M 33.25 15.136719 C 33.25 11.683594 35.664062 9.324219 39.195312 9.324219 C 40.53125 9.324219 41.703125 9.667969 42.753906 10.386719 L 46.257812 8.515625 C 44.496094 6.703125 41.980469 5.742188 38.988281 5.742188 C 33.199219 5.742188 28.996094 9.664062 28.996094 15.136719 C 28.996094 20.613281 33.199219 24.535156 38.988281 24.535156 C 41.183594 24.535156 43.121094 24.015625 44.6875 23.03125 L 42.75 19.890625 C 41.699219 20.609375 40.53125 20.949219 39.191406 20.949219 C 35.664062 20.949219 33.25 18.59375 33.25 15.136719 Z M 33.25 15.136719 " fill-opacity="1" fill-rule="evenodd"/></g><g clip-path="url(#9978367b91)"><path fill="#4286f4" d="M 43.332031 17.488281 L 46.257812 12.804688 L 37.433594 17.511719 L 42.417969 17.492188 Z M 43.332031 17.488281 " fill-opacity="1" fill-rule="evenodd"/></g><g clip-path="url(#b74892da85)"><path fill="#004aad" d="M 46.257812 12.804688 L 43.332031 17.488281 L 46.257812 22.226562 Z M 46.257812 12.804688 " fill-opacity="1" fill-rule="evenodd"/></g><g fill="#ffffff" fill-opacity="1"><g transform="translate(9.803627, 21.62433)"><g><path d="M 1.0625 0 L 1.0625 -15.125 L 4.171875 -15.125 L 4.171875 0 Z M 1.0625 0 "/></g></g></g><g fill="#ffffff" fill-opacity="1"><g transform="translate(13.371168, 21.62433)"><g><path d="M 3.984375 -9.015625 L 3.984375 -4.734375 C 3.984375 -3.835938 4.117188 -3.203125 4.390625 -2.828125 C 4.660156 -2.453125 5.117188 -2.265625 5.765625 -2.265625 C 6.410156 -2.265625 6.867188 -2.453125 7.140625 -2.828125 C 7.410156 -3.203125 7.546875 -3.835938 7.546875 -4.734375 L 7.546875 -9.015625 L 10.65625 -9.015625 L 10.65625 -3.96875 C 10.65625 -2.46875 10.265625 -1.382812 9.484375 -0.71875 C 8.703125 -0.0625 7.460938 0.265625 5.765625 0.265625 C 4.066406 0.265625 2.828125 -0.0625 2.046875 -0.71875 C 1.265625 -1.382812 0.875 -2.46875 0.875 -3.96875 L 0.875 -9.015625 Z M 3.984375 -9.015625 "/></g></g></g><g fill="#ffffff" fill-opacity="1"><g transform="translate(23.24813, 21.62433)"><g><path d="M 1.359375 -14.046875 C 1.722656 -14.410156 2.15625 -14.59375 2.65625 -14.59375 C 3.15625 -14.59375 3.585938 -14.410156 3.953125 -14.046875 C 4.316406 -13.679688 4.5 -13.242188 4.5 -12.734375 C 4.5 -12.234375 4.316406 -11.800781 3.953125 -11.4375 C 3.585938 -11.082031 3.15625 -10.90625 2.65625 -10.90625 C 2.15625 -10.90625 1.722656 -11.082031 1.359375 -11.4375 C 0.992188 -11.800781 0.8125 -12.234375 0.8125 -12.734375 C 0.8125 -13.242188 0.992188 -13.679688 1.359375 -14.046875 Z M 1.0625 -9.015625 L 1.0625 0.796875 C 1.0625 1.609375 0.769531 2.015625 0.1875 2.015625 C 0.0703125 2.015625 -0.046875 1.992188 -0.171875 1.953125 C -0.304688 1.921875 -0.414062 1.878906 -0.5 1.828125 L -0.59375 1.765625 L -1.5625 4.265625 C -1.539062 4.285156 -1.460938 4.320312 -1.328125 4.375 C -1.203125 4.4375 -1.109375 4.476562 -1.046875 4.5 C -0.984375 4.53125 -0.875 4.566406 -0.71875 4.609375 C -0.570312 4.660156 -0.425781 4.695312 -0.28125 4.71875 C -0.144531 4.75 0.0234375 4.773438 0.234375 4.796875 C 0.453125 4.816406 0.679688 4.828125 0.921875 4.828125 C 1.503906 4.828125 2.015625 4.722656 2.453125 4.515625 C 2.898438 4.316406 3.238281 4.046875 3.46875 3.703125 C 3.707031 3.359375 3.882812 2.992188 4 2.609375 C 4.113281 2.234375 4.171875 1.828125 4.171875 1.390625 L 4.171875 -9.015625 Z M 1.0625 -9.015625 "/></g></g></g><g fill="#ffffff" fill-opacity="1"><g transform="translate(47.020287, 21.62433)"><g><path d="M 1.0625 0 L 1.0625 -9.015625 L 4.171875 -9.015625 L 4.171875 -8.0625 L 4.203125 -8.0625 C 5.015625 -8.875 5.875 -9.28125 6.78125 -9.28125 C 7.226562 -9.28125 7.671875 -9.222656 8.109375 -9.109375 C 8.546875 -8.992188 8.96875 -8.8125 9.375 -8.5625 C 9.78125 -8.3125 10.109375 -7.960938 10.359375 -7.515625 C 10.609375 -7.066406 10.734375 -6.539062 10.734375 -5.9375 L 10.734375 0 L 7.625 0 L 7.625 -5.09375 C 7.625 -5.5625 7.472656 -5.972656 7.171875 -6.328125 C 6.878906 -6.679688 6.492188 -6.859375 6.015625 -6.859375 C 5.546875 -6.859375 5.117188 -6.675781 4.734375 -6.3125 C 4.359375 -5.945312 4.171875 -5.539062 4.171875 -5.09375 L 4.171875 0 Z M 1.0625 0 "/></g></g></g><g fill="#ffffff" fill-opacity="1"><g transform="translate(56.985124, 21.62433)"><g><path d="M 1.671875 -1.109375 C 0.828125 -2.035156 0.40625 -3.164062 0.40625 -4.5 C 0.40625 -5.832031 0.828125 -6.960938 1.671875 -7.890625 C 2.515625 -8.816406 3.585938 -9.28125 4.890625 -9.28125 C 6.085938 -9.28125 7.070312 -8.90625 7.84375 -8.15625 L 7.84375 -15.125 L 10.953125 -15.125 L 10.953125 0 L 7.875 0 L 7.875 -1.015625 L 7.84375 -1.015625 C 7.070312 -0.160156 6.085938 0.265625 4.890625 0.265625 C 3.585938 0.265625 2.515625 -0.191406 1.671875 -1.109375 Z M 4.3125 -6.03125 C 3.90625 -5.632812 3.703125 -5.125 3.703125 -4.5 C 3.703125 -3.875 3.894531 -3.363281 4.28125 -2.96875 C 4.675781 -2.582031 5.1875 -2.390625 5.8125 -2.390625 C 6.425781 -2.390625 6.925781 -2.585938 7.3125 -2.984375 C 7.707031 -3.390625 7.90625 -3.894531 7.90625 -4.5 C 7.90625 -5.125 7.703125 -5.632812 7.296875 -6.03125 C 6.898438 -6.425781 6.40625 -6.625 5.8125 -6.625 C 5.21875 -6.625 4.71875 -6.425781 4.3125 -6.03125 Z M 4.3125 -6.03125 "/></g></g></g><g fill="#ffffff" fill-opacity="1"><g transform="translate(67.336613, 21.62433)"><g><path d="M 10.171875 -4.078125 L 3.640625 -4.078125 C 3.640625 -3.441406 3.84375 -2.972656 4.25 -2.671875 C 4.664062 -2.367188 5.113281 -2.21875 5.59375 -2.21875 C 6.09375 -2.21875 6.488281 -2.285156 6.78125 -2.421875 C 7.070312 -2.554688 7.40625 -2.820312 7.78125 -3.21875 L 10.03125 -2.09375 C 9.09375 -0.519531 7.535156 0.265625 5.359375 0.265625 C 4.003906 0.265625 2.835938 -0.195312 1.859375 -1.125 C 0.890625 -2.0625 0.40625 -3.1875 0.40625 -4.5 C 0.40625 -5.8125 0.890625 -6.9375 1.859375 -7.875 C 2.835938 -8.8125 4.003906 -9.28125 5.359375 -9.28125 C 6.785156 -9.28125 7.945312 -8.863281 8.84375 -8.03125 C 9.75 -7.207031 10.203125 -6.03125 10.203125 -4.5 C 10.203125 -4.289062 10.191406 -4.148438 10.171875 -4.078125 Z M 3.734375 -5.796875 L 7.15625 -5.796875 C 7.082031 -6.265625 6.894531 -6.625 6.59375 -6.875 C 6.300781 -7.132812 5.921875 -7.265625 5.453125 -7.265625 C 4.929688 -7.265625 4.519531 -7.128906 4.21875 -6.859375 C 3.914062 -6.585938 3.753906 -6.234375 3.734375 -5.796875 Z M 3.734375 -5.796875 "/></g></g></g><g fill="#ffffff" fill-opacity="1"><g transform="translate(76.282102, 21.62433)"><g><path d="M 3.34375 -9.015625 L 5.53125 -4.109375 L 7.734375 -9.015625 L 11.421875 -9.015625 L 6.59375 0 L 4.484375 0 L -0.359375 -9.015625 Z M 3.34375 -9.015625 "/></g></g></g></svg>