<svg xmlns="http://www.w3.org/2000/svg" xmlns:xlink="http://www.w3.org/1999/xlink" width="110" zoomAndPan="magnify" viewBox="0 0 82.5 35.25" height="47" preserveAspectRatio="xMidYMid meet" version="1.0"><defs><g/><clipPath id="c78141e5a3"><path d="M 0.613281 26 L 24.113281 26 L 24.113281 34.515625 L 0.613281 34.515625 Z M 0.613281 26 " clip-rule="nonzero"/></clipPath><clipPath id="506490e08e"><path d="M 0.613281 0 L 9 0 L 9 34.515625 L 0.613281 34.515625 Z M 0.613281 0 " clip-rule="nonzero"/></clipPath><clipPath id="d81c1a2ba2"><path d="M 77 17 L 81.394531 17 L 81.394531 22 L 77 22 Z M 77 17 " clip-rule="nonzero"/></clipPath></defs><g clip-path="url(#c78141e5a3)"><path fill="#004aad" d="M 24.4375 34.515625 L 8.847656 34.515625 L 0.617188 26.28125 L 16.203125 26.28125 Z M 24.4375 34.515625 " fill-opacity="1" fill-rule="evenodd"/></g><g clip-path="url(#506490e08e)"><path fill="#276ecc" d="M 8.847656 8.234375 L 8.847656 34.515625 L 0.617188 26.28125 L 0.617188 0 Z M 8.847656 8.234375 " fill-opacity="1" fill-rule="evenodd"/></g><g fill="#ffffff" fill-opacity="1"><g transform="translate(11.205629, 21.393178)"><g><path d="M 3.75 -8.46875 L 3.75 -4.4375 C 3.75 -3.601562 3.875 -3.007812 4.125 -2.65625 C 4.375 -2.300781 4.800781 -2.125 5.40625 -2.125 C 6.007812 -2.125 6.4375 -2.300781 6.6875 -2.65625 C 6.945312 -3.007812 7.078125 -3.601562 7.078125 -4.4375 L 7.078125 -8.46875 L 10 -8.46875 L 10 -3.734375 C 10 -2.316406 9.628906 -1.296875 8.890625 -0.671875 C 8.160156 -0.0546875 7 0.25 5.40625 0.25 C 3.8125 0.25 2.648438 -0.0546875 1.921875 -0.671875 C 1.191406 -1.296875 0.828125 -2.316406 0.828125 -3.734375 L 0.828125 -8.46875 Z M 3.75 -8.46875 "/></g></g></g><g fill="#ffffff" fill-opacity="1"><g transform="translate(21.402783, 21.393178)"><g><path d="M 1.265625 -13.171875 C 1.609375 -13.515625 2.015625 -13.6875 2.484375 -13.6875 C 2.960938 -13.6875 3.367188 -13.515625 3.703125 -13.171875 C 4.046875 -12.835938 4.21875 -12.429688 4.21875 -11.953125 C 4.21875 -11.484375 4.046875 -11.078125 3.703125 -10.734375 C 3.367188 -10.398438 2.960938 -10.234375 2.484375 -10.234375 C 2.015625 -10.234375 1.609375 -10.398438 1.265625 -10.734375 C 0.929688 -11.078125 0.765625 -11.484375 0.765625 -11.953125 C 0.765625 -12.429688 0.929688 -12.835938 1.265625 -13.171875 Z M 0.984375 -8.46875 L 0.984375 0.75 C 0.984375 1.507812 0.71875 1.890625 0.1875 1.890625 C 0.0703125 1.890625 -0.0390625 1.867188 -0.15625 1.828125 C -0.28125 1.796875 -0.382812 1.757812 -0.46875 1.71875 L -0.5625 1.65625 L -1.46875 4.015625 C -1.445312 4.023438 -1.375 4.054688 -1.25 4.109375 C -1.132812 4.160156 -1.046875 4.203125 -0.984375 4.234375 C -0.921875 4.265625 -0.816406 4.300781 -0.671875 4.34375 C -0.535156 4.382812 -0.398438 4.414062 -0.265625 4.4375 C -0.128906 4.457031 0.0351562 4.476562 0.234375 4.5 C 0.429688 4.519531 0.640625 4.53125 0.859375 4.53125 C 1.410156 4.53125 1.894531 4.429688 2.3125 4.234375 C 2.726562 4.046875 3.046875 3.789062 3.265625 3.46875 C 3.484375 3.144531 3.644531 2.800781 3.75 2.4375 C 3.851562 2.082031 3.90625 1.703125 3.90625 1.296875 L 3.90625 -8.46875 Z M 0.984375 -8.46875 "/></g></g></g><g fill="#ffffff" fill-opacity="1"><g transform="translate(25.676249, 21.393178)"><g><path d="M 1.5625 -1.046875 C 0.769531 -1.910156 0.375 -2.96875 0.375 -4.21875 C 0.375 -5.476562 0.769531 -6.539062 1.5625 -7.40625 C 2.351562 -8.28125 3.363281 -8.71875 4.59375 -8.71875 C 5.707031 -8.71875 6.628906 -8.363281 7.359375 -7.65625 L 7.359375 -8.46875 L 10.28125 -8.46875 L 10.28125 0 L 7.390625 0 L 7.390625 -0.953125 L 7.359375 -0.953125 C 6.628906 -0.148438 5.707031 0.25 4.59375 0.25 C 3.363281 0.25 2.351562 -0.179688 1.5625 -1.046875 Z M 4.046875 -5.65625 C 3.671875 -5.28125 3.484375 -4.800781 3.484375 -4.21875 C 3.484375 -3.632812 3.664062 -3.160156 4.03125 -2.796875 C 4.394531 -2.429688 4.875 -2.25 5.46875 -2.25 C 6.03125 -2.25 6.492188 -2.429688 6.859375 -2.796875 C 7.234375 -3.171875 7.421875 -3.644531 7.421875 -4.21875 C 7.421875 -4.800781 7.226562 -5.28125 6.84375 -5.65625 C 6.46875 -6.03125 6.007812 -6.21875 5.46875 -6.21875 C 4.90625 -6.21875 4.429688 -6.03125 4.046875 -5.65625 Z M 4.046875 -5.65625 "/></g></g></g><g fill="#ffffff" fill-opacity="1"><g transform="translate(36.318918, 21.393178)"><g><path d="M 0.984375 0 L 0.984375 -8.46875 L 3.90625 -8.46875 L 3.90625 -7.578125 L 3.9375 -7.578125 C 4.695312 -8.335938 5.507812 -8.71875 6.375 -8.71875 C 6.789062 -8.71875 7.203125 -8.660156 7.609375 -8.546875 C 8.023438 -8.429688 8.421875 -8.257812 8.796875 -8.03125 C 9.179688 -7.800781 9.488281 -7.472656 9.71875 -7.046875 C 9.957031 -6.628906 10.078125 -6.140625 10.078125 -5.578125 L 10.078125 0 L 7.15625 0 L 7.15625 -4.78125 C 7.15625 -5.21875 7.015625 -5.601562 6.734375 -5.9375 C 6.453125 -6.269531 6.085938 -6.4375 5.640625 -6.4375 C 5.203125 -6.4375 4.800781 -6.265625 4.4375 -5.921875 C 4.082031 -5.578125 3.90625 -5.195312 3.90625 -4.78125 L 3.90625 0 Z M 0.984375 0 "/></g></g></g><g fill="#ffffff" fill-opacity="1"><g transform="translate(46.598579, 21.393178)"><g><path d="M 1.5625 -1.046875 C 0.769531 -1.910156 0.375 -2.96875 0.375 -4.21875 C 0.375 -5.476562 0.769531 -6.539062 1.5625 -7.40625 C 2.351562 -8.28125 3.363281 -8.71875 4.59375 -8.71875 C 5.707031 -8.71875 6.628906 -8.363281 7.359375 -7.65625 L 7.359375 -14.1875 L 10.28125 -14.1875 L 10.28125 0 L 7.390625 0 L 7.390625 -0.953125 L 7.359375 -0.953125 C 6.628906 -0.148438 5.707031 0.25 4.59375 0.25 C 3.363281 0.25 2.351562 -0.179688 1.5625 -1.046875 Z M 4.046875 -5.65625 C 3.671875 -5.28125 3.484375 -4.800781 3.484375 -4.21875 C 3.484375 -3.632812 3.664062 -3.160156 4.03125 -2.796875 C 4.394531 -2.429688 4.875 -2.25 5.46875 -2.25 C 6.03125 -2.25 6.492188 -2.429688 6.859375 -2.796875 C 7.234375 -3.171875 7.421875 -3.644531 7.421875 -4.21875 C 7.421875 -4.800781 7.226562 -5.28125 6.84375 -5.65625 C 6.46875 -6.03125 6.007812 -6.21875 5.46875 -6.21875 C 4.90625 -6.21875 4.429688 -6.03125 4.046875 -5.65625 Z M 4.046875 -5.65625 "/></g></g></g><g fill="#ffffff" fill-opacity="1"><g transform="translate(57.241248, 21.393178)"><g><path d="M 9.546875 -3.828125 L 3.421875 -3.828125 C 3.421875 -3.234375 3.613281 -2.789062 4 -2.5 C 4.382812 -2.21875 4.800781 -2.078125 5.25 -2.078125 C 5.71875 -2.078125 6.085938 -2.140625 6.359375 -2.265625 C 6.640625 -2.390625 6.957031 -2.640625 7.3125 -3.015625 L 9.421875 -1.96875 C 8.535156 -0.488281 7.070312 0.25 5.03125 0.25 C 3.757812 0.25 2.664062 -0.1875 1.75 -1.0625 C 0.832031 -1.9375 0.375 -2.988281 0.375 -4.21875 C 0.375 -5.457031 0.832031 -6.515625 1.75 -7.390625 C 2.664062 -8.273438 3.757812 -8.71875 5.03125 -8.71875 C 6.375 -8.71875 7.460938 -8.328125 8.296875 -7.546875 C 9.140625 -6.773438 9.5625 -5.664062 9.5625 -4.21875 C 9.5625 -4.019531 9.554688 -3.890625 9.546875 -3.828125 Z M 3.5 -5.4375 L 6.71875 -5.4375 C 6.644531 -5.882812 6.46875 -6.222656 6.1875 -6.453125 C 5.914062 -6.691406 5.554688 -6.8125 5.109375 -6.8125 C 4.628906 -6.8125 4.242188 -6.6875 3.953125 -6.4375 C 3.671875 -6.1875 3.519531 -5.851562 3.5 -5.4375 Z M 3.5 -5.4375 "/></g></g></g><g fill="#ffffff" fill-opacity="1"><g transform="translate(66.563877, 21.393178)"><g><path d="M 3.140625 -8.46875 L 5.203125 -3.859375 L 7.265625 -8.46875 L 10.71875 -8.46875 L 6.1875 0 L 4.203125 0 L -0.328125 -8.46875 Z M 3.140625 -8.46875 "/></g></g></g><g clip-path="url(#d81c1a2ba2)"><g fill="#004aad" fill-opacity="1"><g transform="translate(76.33551, 21.393178)"><g><path d="M 2.875 -3.53125 C 3.394531 -3.53125 3.835938 -3.34375 4.203125 -2.96875 C 4.578125 -2.601562 4.765625 -2.160156 4.765625 -1.640625 C 4.765625 -1.117188 4.578125 -0.671875 4.203125 -0.296875 C 3.835938 0.0664062 3.394531 0.25 2.875 0.25 C 2.351562 0.25 1.90625 0.0664062 1.53125 -0.296875 C 1.164062 -0.671875 0.984375 -1.117188 0.984375 -1.640625 C 0.984375 -2.160156 1.164062 -2.601562 1.53125 -2.96875 C 1.90625 -3.34375 2.351562 -3.53125 2.875 -3.53125 Z M 2.875 -3.53125 "/></g></g></g></g></svg>